HIERARCHY
ROOT Hips
{
  OFFSET -187.679 86.5976 -156.378
  CHANNELS 6 Xposition Yposition Zposition Zrotation Xrotation Yrotation
  JOINT LeftUpLeg
  {
    OFFSET 8.64259 1.95398 -2.38835
    CHANNELS 3 Zrotation Xrotation Yrotation
    JOINT LeftLeg
    {
      OFFSET 43.7702 0 0
      CHANNELS 3 Zrotation Xrotation Yrotation
      JOINT LeftFoot
      {
        OFFSET 40.6238 0 0
        CHANNELS 3 Zrotation Xrotation Yrotation
        JOINT LeftToeBase
        {
          OFFSET 12.7242 0 0
          CHANNELS 3 Zrotation Xrotation Yrotation
          End Site
          {
            OFFSET 0 0 0
          }
        }
      }
    }
  }
  JOINT RightUpLeg
  {
    OFFSET -8.2249 1.95398 -2.59336
    CHANNELS 3 Zrotation Xrotation Yrotation
    JOINT RightLeg
    {
      OFFSET 43.5653 0 0
      CHANNELS 3 Zrotation Xrotation Yrotation
      JOINT RightFoot
      {
        OFFSET 40.6238 0 0
        CHANNELS 3 Zrotation Xrotation Yrotation
        JOINT RightToeBase
        {
          OFFSET 12.7242 0 0
          CHANNELS 3 Zrotation Xrotation Yrotation
          End Site
          {
            OFFSET 0 0 0
          }
        }
      }
    }
  }
  JOINT Spine
  {
    OFFSET 0.165834 0.87714 6.61349
    CHANNELS 3 Zrotation Xrotation Yrotation
    JOINT Spine1
    {
      OFFSET 7.38963 1.71661e-005 0
      CHANNELS 3 Zrotation Xrotation Yrotation
      JOINT Spine2
      {
        OFFSET 11.9445 1.14441e-005 0
        CHANNELS 3 Zrotation Xrotation Yrotation
        JOINT Spine3
        {
          OFFSET 14.7254 4.19617e-005 0
          CHANNELS 3 Zrotation Xrotation Yrotation
          JOINT Spine4
          {
            OFFSET 10.9679 0 0
            CHANNELS 3 Zrotation Xrotation Yrotation
            JOINT RightShoulder
            {
              OFFSET 2.46616 -1.6653 3.69651
              CHANNELS 3 Zrotation Xrotation Yrotation
              JOINT RightArm
              {
                OFFSET 13.0012 0 0
                CHANNELS 3 Zrotation Xrotation Yrotation
                JOINT RightForeArm
                {
                  OFFSET 28.7848 1.52588e-005 0
                  CHANNELS 3 Zrotation Xrotation Yrotation
                  JOINT RightHand
                  {
                    OFFSET 26.5688 1.52588e-005 0
                    CHANNELS 3 Zrotation Xrotation Yrotation
                    End Site
                    {
                      OFFSET 0 0 0
                    }
                  }
                }
              }
            }
            JOINT LeftShoulder
            {
              OFFSET 2.38034 -1.29275 -3.7523
              CHANNELS 3 Zrotation Xrotation Yrotation
              JOINT LeftArm
              {
                OFFSET 16.3182 6.10352e-005 0
                CHANNELS 3 Zrotation Xrotation Yrotation
                JOINT LeftForeArm
                {
                  OFFSET 27.0901 0 0
                  CHANNELS 3 Zrotation Xrotation Yrotation
                  JOINT LeftHand
                  {
                    OFFSET 24.5451 1.52588e-005 0
                    CHANNELS 3 Zrotation Xrotation Yrotation
                    End Site
                    {
                      OFFSET 0 0 0
                    }
                  }
                }
              }
            }
            JOINT Neck
            {
              OFFSET 5.0226 -0.0266342 0
              CHANNELS 3 Zrotation Xrotation Yrotation
              JOINT Head
              {
                OFFSET 6.69363 2.86102e-005 0
                CHANNELS 3 Zrotation Xrotation Yrotation
                End Site
                {
                  OFFSET 0 0 0
                }
              }
            }
          }
        }
      }
    }
  }
}
MOTION
Frames:	15
Frame Time:	0.0416667
27.774 95.619 -248.601 77.978 -56.7822 85.3116 -156.656 -8.06193 121.821 -41.3405 82.6583 34.2848 53.068 -6.21447 3.02469 49.1271 9.64548 -21.2914 161.74 35.4424 95.4577 -72.5135 16.1457 10.4121 87.1546 -4.01926 0.712626 21.035 -3.0278 4.99076 -5.36619 8.11778 -91.361 10.5889 -11.313 -1.68706 -1.03253 -11.3761 -1.18106 -23.9039 -10.2779 -5.04286 -3.89122 -10.2779 -5.04287 93.0073 -31.3744 -100.203 49.0563 -27.018 53.2205 -41.1503 23.0771 -97.1183 -0.557803 -0.0261939 -4.99997 -82.6723 -17.384 85.2981 -10.669 -6.59966 -51.6877 23.6759 -17.8526 -121.024 -0.46106 -0.0772676 -3.61932 37.9461 6.2447 -7.37019 -6.59554 9.41666 -1.86456 
27.3892 96.3684 -242.852 71.8225 -64.9548 80.0353 -155.782 -12.5449 118.76 -33.2556 74.4396 27.0638 48.6905 -7.87062 -0.651073 25.7778 1.10506 -6.34698 167.072 39.772 96.7153 -62.3022 13.6196 8.34059 83.2331 -4.21425 0.053883 21.7548 -2.9421 5.17398 -4.7278 7.93002 -91.5497 10.9457 -10.129 -2.12391 -0.686431 -10.2125 -1.67157 -23.4738 -9.01946 -5.09159 -3.46118 -9.01946 -5.0916 92.4308 -30.9475 -101.461 45.3313 -23.3162 52.6652 -39.5003 22.2229 -99.3469 -0.838825 -0.026662 -5.337 -82.5548 -16.7863 85.4445 -9.08861 -2.78881 -49.1445 24.7944 -19.1502 -119.745 -1.45191 -0.0839845 -3.62915 39.4864 8.3783 -5.54001 -8.80485 10.6867 -2.10363 
27.2061 96.0447 -237.369 61.8735 -75.2166 69.637 -158.394 -22.4352 114.571 -16.039 62.7649 10.9933 46.4407 -6.62585 -2.54763 21.5896 -1.367 -3.7233 173.053 42.0879 98.0902 -53.4143 9.97717 4.65567 80.6728 -4.75662 -0.351164 21.2211 -2.87445 4.67797 -3.76778 7.83569 -91.4621 11.144 -8.17809 -2.11451 -0.502256 -8.26316 -1.75024 -23.1916 -7.16338 -4.48484 -3.17899 -7.16337 -4.48483 91.5993 -32.2672 -102.673 41.3134 -20.7068 50.1636 -38.4006 20.6146 -99.7763 -1.52247 -0.0384223 -3.41795 -82.9954 -18.4558 84.789 -6.54979 2.56763 -46.9623 27.6646 -21.4573 -116.847 -0.345116 -0.0157353 -0.0131925 38.6116 9.91941 -4.01678 -8.23517 11.3868 -2.61369 
27.2147 94.8939 -232.226 21.3867 -83.6112 27.3877 -165.648 -26.3812 102.526 -24.4506 50.2888 9.3031 48.4129 -4.98912 -1.0942 32.8075 2.34337 -2.93485 178.147 43.6208 98.8373 -48.0211 4.76922 0.947129 78.9645 -5.45547 -0.382065 22.2743 -2.58449 4.46901 -2.71443 7.77508 -91.2327 11.282 -5.97563 -1.86119 -0.376165 -6.05173 -1.59555 -22.9871 -5.13973 -3.57452 -2.97449 -5.13973 -3.57452 91.0347 -35.0425 -102.874 35.9701 -18.2375 44.8555 -39.6529 18.5366 -99.0111 -1.34369 -0.0465201 -1.89656 -83.6675 -23.7316 84.4391 -2.37508 9.5068 -44.7809 28.7785 -22.3802 -113.225 0.34914 -0.0768592 -3.26861 38.4674 11.2191 -1.25106 -7.27266 11.3458 -4.32952 
27.2213 93.6954 -226.714 -42.9985 -82.4191 -38.8872 -170.775 -21.7565 92.3516 -40.8486 39.5208 8.86127 53.2079 -3.18335 -2.07023 35.2656 2.72577 -1.11943 -178.717 44.0272 98.982 -46.6591 0.227679 -1.43045 77.311 -5.83897 -1.19138 20.3869 -2.74408 3.86351 -1.8898 7.69699 -90.9626 11.4555 -4.20953 -1.48998 -0.209238 -4.27101 -1.30299 -22.7795 -3.56706 -2.68729 -2.76686 -3.56707 -2.6873 89.591 -39.973 -103.948 28.853 -13.9973 38.2915 -42.4547 16.4964 -99.0687 -3.5865 -0.0823964 -2.75089 -85.3677 -29.0746 82.1795 0.813998 18.4588 -40.6825 33.6385 -24.574 -108.075 -6.6121 0.0465199 -7.78683 38.7014 11.4932 0.277589 -7.28343 10.9027 -4.73824 
27.0293 92.7579 -220.367 -61.7839 -80.4857 -58.6505 -170.811 -15.9359 89.7648 -54.9349 35.1025 6.93734 51.5604 -3.86525 -1.373 34.9097 3.1518 -3.34231 -177.766 43.2257 99.062 -50.0607 -2.34513 -2.64794 72.1468 -4.2957 -2.7167 22.1673 -2.14473 3.16567 -1.36186 7.75672 -90.9023 11.3404 -3.1305 -1.48376 -0.327426 -3.19277 -1.34445 -22.8775 -2.5399 -2.35627 -2.86489 -2.5399 -2.35626 88.9593 -42.8305 -104.159 24.115 -8.31389 31.0422 -46.5932 14.7633 -98.9371 -2.8206 -0.127108 -0.333976 -86.6638 -34.5739 81.001 2.18401 24.6552 -37.8578 35.0293 -23.9461 -102.559 -6.35452 -0.00616513 -6.50925 37.9896 11.4045 3.208 -6.30956 9.4371 -5.1206 
26.531 91.7893 -213.437 -67.6815 -80.8868 -64.2833 -168.756 -8.98033 93.5703 -68.942 30.4509 6.32386 51.5325 -3.62413 -0.126736 33.404 2.61599 -3.23913 -178.391 41.313 99.4402 -55.4641 -1.4884 -2.62651 69.4608 -3.35861 -1.80507 21.278 -2.29546 3.10025 -1.13229 7.77963 -90.9559 11.2944 -2.69844 -1.63504 -0.374649 -2.76778 -1.51466 -22.9163 -2.08241 -2.37045 -2.90368 -2.08239 -2.37045 87.6805 -45.2011 -105.539 20.8013 -1.7549 24.627 -47.2529 13.3388 -100.857 -5.18725 -0.305924 2.31016 -87.4585 -39.4215 80.6918 -0.512126 31.3079 -32.687 36.2823 -22.2282 -95.6345 -5.06473 -0.0505732 -5.99417 35.7195 11.4708 5.72269 -4.30312 8.38353 -5.52957 
26.1982 90.4772 -207.103 -67.1417 -80.7514 -63.0524 -168.127 1.46498 91.425 -82.2645 23.045 6.11032 54.0119 -2.31573 1.37154 35.5071 3.96439 -5.86861 -179.667 40.263 100.664 -62.0721 0.871908 -2.0437 75.7257 -5.70166 -1.23436 23.4589 -2.32849 4.4461 -0.823694 7.67133 -91.0702 11.5103 -2.13908 -1.91336 -0.16011 -2.2212 -1.81738 -22.6916 -1.46535 -2.4676 -2.67898 -1.46533 -2.46759 87.6735 -45.8662 -105.349 21.5539 2.52371 16.9296 -39.5105 11.4208 -102.227 -8.07632 -0.597726 3.80289 -87.8133 -42.2889 80.7206 -8.86044 35.5147 -23.7258 38.7247 -19.5885 -89.2327 -6.74605 0.0307898 -7.16693 32.7245 10.9785 7.68818 -1.60248 7.15164 -5.23837 
25.8063 89.7005 -201.11 -72.1127 -80.9928 -66.602 -168.156 10.4299 95.8846 -93.6298 18.2254 6.58662 56.5631 -0.907515 3.57482 34.6378 4.19649 -7.90199 179.063 36.2205 102.142 -65.1047 1.94081 -1.44007 80.8087 -7.52879 -0.669862 22.4171 -2.65949 4.76753 -0.413338 7.72619 -91.1382 11.4041 -1.3536 -2.13038 -0.267749 -1.44603 -2.06878 -22.7906 -0.650975 -2.43853 -2.778 -0.650968 -2.43852 86.7871 -47.5795 -106.226 22.8782 6.56139 7.39855 -39.6693 11.1206 -103.247 -4.804 -0.286406 2.19681 -88.5113 -43.6591 79.8825 -19.1893 34.4882 -10.6297 44.5042 -18.3763 -86.8508 -8.05351 0.0660612 -7.26663 31.548 9.55207 8.06548 -0.301131 5.66805 -4.91633 
25.4764 89.3094 -194.975 -78.2349 -80.7709 -72.6402 -169.443 20.5265 96.0628 -101.438 16.2475 6.94693 59.1357 0.559561 4.4863 26.9779 2.72893 -10.4248 178.587 30.8862 101.982 -66.388 0.806912 -1.53524 85.4197 -9.37669 -1.96166 23.8728 -2.36391 4.79081 -0.0465655 7.85225 -91.0389 11.1598 -0.575401 -2.01222 -0.512503 -0.663388 -1.98497 -23.0352 0.0558118 -2.0921 -3.02256 0.0558131 -2.09209 85.9945 -48.7429 -107.091 22.948 7.13769 -4.90542 -36.6775 10.9664 -103.599 -6.05662 -0.398657 2.8875 -88.0771 -43.0758 80.4584 -29.5001 28.3139 5.08824 42.1143 -19.4135 -91.2092 -7.68994 -0.00885125 -5.94938 32.539 8.02742 6.06846 -1.11459 5.03227 -2.97821 
25.2212 88.9725 -188.518 -78.491 -80.2123 -73.1047 -170.605 30.3111 95.5219 -105.416 17.1718 7.03351 61.6532 2.42462 8.34889 26.1858 2.70157 -10.9968 178.829 25.6004 101.27 -65.9287 1.58919 -1.77649 89.5647 -10.8393 -1.50553 25.9295 -2.26602 5.78139 0.295934 7.81203 -90.9737 11.2461 0.135881 -1.95159 -0.42627 0.0498732 -1.95569 -22.951 0.71603 -1.82061 -2.93831 0.716027 -1.82062 85.6023 -48.4275 -107.793 21.388 5.22602 -16.295 -36.8596 11.8997 -103.749 -7.05258 -0.544749 4.33199 -86.8882 -43.8066 82.5239 -34.254 22.7767 19.4464 37.8629 -21.0383 -96.8653 -7.2369 0.10738 -8.60242 32.2455 6.77787 5.60751 -1.21353 4.0633 -2.66498 
24.8811 89.211 -181.736 -82.7671 -79.2661 -78.0715 -170.796 37.8544 94.8524 -104.558 16.9296 6.57717 64.4444 4.21531 10.3379 28.0333 2.42158 -8.45345 179.51 18.3239 99.6921 -62.7671 2.48655 -2.43489 92.5995 -11.6904 0.361048 26.9534 -1.82909 5.07157 0.876372 7.76204 -90.7838 11.359 1.37835 -1.69951 -0.312481 1.30222 -1.75851 -22.8482 1.82536 -1.20673 -2.83552 1.82536 -1.20673 86.7275 -47.6539 -106.295 20.4212 4.3844 -25.3783 -33.6402 12.23 -105.084 -9.28304 -0.800712 5.2604 -86.3811 -40.8206 82.7854 -39.6291 20.39 30.6639 36.1509 -22.7858 -99.3163 -6.83198 0.0755672 -8.28358 30.7262 3.72102 3.28026 -0.944645 2.19467 -0.649695 
24.9085 90.2844 -174.386 -87.2107 -79.4555 -83.4687 -171.386 42.588 93.2879 -98.9057 13.4113 5.62386 68.0828 5.84389 9.45606 25.5716 3.00442 -12.4025 178.704 10.0745 97.0426 -58.2348 -2.42729 -3.04864 90.8732 -11.7159 -2.022 28.9536 -1.34705 4.80933 1.28268 7.6715 -90.5719 11.5452 2.28429 -1.37408 -0.12456 2.22161 -1.47331 -22.6742 2.5916 -0.623691 -2.66153 2.59159 -0.623696 88.1349 -44.7038 -104.956 20.9756 3.21589 -29.9402 -35.7142 13.9616 -107.493 -8.6946 -0.760997 5.46954 -84.1933 -39.7667 86.3127 -41.0537 22.0812 39.5102 39.3836 -25.8719 -99.5593 -6.2749 0.0313948 -7.6545 28.8206 1.41199 2.78162 -0.990161 0.255848 -0.735804 
24.9587 92.0344 -166.274 -94.24 -80.1132 -91.6753 -171.949 44.2557 91.3298 -89.6344 11.0984 4.31852 68.2884 5.2778 7.52322 28.2362 2.92919 -9.93577 176.854 1.89187 91.8467 -51.2417 -7.32917 -3.2817 85.0465 -10.0378 -4.3179 33.097 -1.13758 7.25693 1.85283 7.70674 -90.4183 11.4837 3.49093 -1.18869 -0.183178 3.43523 -1.34134 -22.7561 3.68659 -0.083194 -2.74341 3.68659 -0.0832021 91.716 -39.4756 -100.403 25.0103 2.51283 -33.0135 -39.1353 16.6174 -110.052 -5.78604 -0.526709 6.10835 -83.649 -38.4528 87.0594 -42.2149 24.0753 45.7013 39.6501 -28.3251 -100.54 -6.62956 0.0764675 -8.60587 29.1637 -1.68451 2.63097 -2.92327 -2.63744 -0.215608 
25.1746 94.0081 -157.463 -108.483 -82.0633 -106.977 -173.514 42.9659 88.8426 -78.0024 10.9064 3.34579 67.7629 4.93361 7.39503 28.2101 2.82378 -9.60573 173.463 -10.1113 90.5548 -41.2772 -11.4848 -2.3639 75.988 -6.63948 -4.04418 35.757 -0.814726 8.39005 2.19424 7.73245 -90.1655 11.4291 4.28871 -0.763363 -0.235111 4.25096 -0.951713 -22.8268 4.31947 0.563332 -2.81415 4.31947 0.56332 92.4076 -36.6945 -99.8896 26.5161 4.07828 -31.5752 -34.7891 16.5267 -114.328 -7.01392 -0.56101 4.74033 -83.2738 -34.1577 87.11 -45.2347 24.3315 50.3412 38.5111 -29.7698 -101.788 -5.25688 0.0355826 -8.88591 27.5031 -5.61613 -1.63246 -3.51894 -4.76148 2.4332 
